<svg version="1.1" xmlns="http://www.w3.org/2000/svg" viewBox="-2800.2960133265874 -1575.0400955200196 9305.76850573534 2395.392141723633"><desc>Created with Snap</desc><defs></defs><g><rect x="-2800.2960133265874" y="-1575.0400955200196" width="9305.76850573534" height="2395.392141723633" fill="#007c2f" style=""></rect><g transform="matrix(0.2938,0,0,0.2938,-2600.1594,-1580.9596)">
<g>
	<path d="M4420.813,2317.79c3.686-0.136,7.509,0.273,11.059,1.092c9.421,2.048,17.886,6.69,24.576,13.38l0.819,0.819
		c2.731,3.004,5.052,6.008,7.1,9.557c3.823,6.69,6.007,14.199,6.28,22.392c0.137,4.096-0.137,7.919-0.956,11.878
		c-2.048,9.421-6.69,17.886-13.38,24.576l-0.819,0.819c-3.003,2.731-6.007,5.052-9.557,7.1c-6.007,3.413-12.834,5.598-20.07,6.144
		c-191.283,18.022-376.423,45.056-555.418,80.555c59.802,88.473,155.648,161.928,284.262,213.811
		c13.653,5.598,27.443,10.65,41.097,15.565c25.532,8.875,38.912,36.727,30.037,62.259s-36.728,38.912-62.259,30.037
		c-15.838-5.598-30.993-11.196-45.329-17.067c-162.748-65.673-280.986-163.703-349.798-283.443
		c-269.517,58.982-524.698,137.216-765.406,233.199c68.403,94.754,170.394,175.309,303.513,237.158
		c53.794,24.986,112.094,46.831,174.899,65.126c25.941,7.509,40.823,34.679,33.314,60.621s-34.679,40.823-60.621,33.314
		c-68.403-20.071-131.345-43.554-188.689-70.178c-157.56-73.182-276.753-171.076-355.123-288.085
		c-236.203,100.215-457.933,217.634-664.781,350.481c126.566,209.579,341.743,382.703,636.655,501.76
		c28.672,11.605,57.617,22.528,87.108,32.768c25.532,8.875,38.912,36.727,30.037,62.259c-8.875,25.532-36.728,38.912-62.259,30.037
		c-31.539-11.059-61.986-22.528-91.341-34.406c-313.754-126.703-544.085-312.525-681.984-538.897
		c-4.642,3.14-9.421,6.281-14.063,9.557c-329.865,224.461-620.134,489.335-869.99,786.705
		c239.343,255.591,639.386,423.39,1054.72,459.298c398.131,34.406,808.414-52.838,1101.414-300.783
		c940.988-796.262,1577.643-1172.412,2068.48-1270.716c447.147-89.566,771.687,47.65,1089.673,308.429
		c-86.835-314.846-229.513-614.537-423.527-882.824c-216.132-298.735-496.025-558.694-833.672-757.624
		c-655.497-385.98-1405.338-469.811-2087.868-293.137s-1297.613,613.581-1683.593,1268.941
		c-114.552,194.697-202.615,397.858-265.148,605.389c-53.658,178.313-88.474,359.492-104.994,540.808
		c243.576-246.852,517.325-466.261,819.883-652.629c17.067-10.513,34.133-20.89,51.337-31.13
		c-76.186-229.513-70.315-487.834,25.122-760.218c8.328-23.894,17.34-47.514,26.76-70.998c10.104-25.122,38.502-37.273,63.625-27.17
		c25.122,10.103,37.274,38.502,27.17,63.625c-9.148,22.665-17.613,44.919-25.259,66.765
		c-85.197,243.302-93.525,473.225-30.993,677.615c212.446-120.422,438.135-225.144,676.932-312.525
		c-39.594-129.16-38.366-272.93,6.417-425.711c14.746-50.244,33.86-100.898,57.617-151.961
		c11.332-24.576,40.414-35.226,64.99-23.893c24.576,11.332,35.226,40.414,23.893,64.99c-21.982,47.377-39.595,93.525-52.565,138.172
		c-38.775,132.301-40.687,255.727-7.919,365.909c250.675-85.879,515.277-152.781,793.395-198.929
		c-27.853-107.725-21.299-226.509,22.255-350.891c4.233-12.151,8.738-23.893,13.38-35.499c10.104-25.122,38.502-37.274,63.625-27.17
		c25.122,10.104,37.274,38.502,27.17,63.625c-4.369,10.786-8.329,21.299-11.878,31.266
		c-38.093,108.954-43.145,211.763-17.476,303.514c195.789-28.809,398.131-47.514,606.754-55.296h0.819L4420.813,2317.79z
		 M3771.324,5874.347c-3.686,0.137-7.509-0.273-11.059-1.092c-9.421-2.048-17.886-6.69-24.576-13.38l-0.819-0.819
		c-2.731-3.004-5.052-6.008-7.1-9.558c-3.823-6.69-6.007-14.199-6.281-22.392c-0.136-4.096,0.137-7.918,0.956-11.878
		c2.048-9.421,6.69-17.886,13.38-24.576l0.819-0.819c3.004-2.73,6.008-5.052,9.557-7.1c6.008-3.414,12.834-5.598,20.07-6.144
		c191.283-18.022,376.422-45.056,555.417-80.555c-59.801-88.474-155.648-161.929-284.262-213.811
		c-13.653-5.598-27.443-10.65-41.096-15.565c-25.532-8.875-38.912-36.728-30.037-62.259c8.875-25.532,36.727-38.912,62.259-30.037
		c15.838,5.598,30.993,11.196,45.329,17.066c162.748,65.673,280.986,163.704,349.799,283.443
		c269.517-58.982,524.697-137.216,765.406-233.199c-68.403-94.754-170.394-175.309-303.514-237.158
		c-53.794-24.985-112.094-46.831-174.899-65.126c-25.941-7.509-40.824-34.679-33.314-60.621s34.68-40.824,60.621-33.314
		c68.403,20.071,131.345,43.554,188.689,70.178c157.56,73.182,276.753,171.076,355.123,288.085
		c236.203-100.215,457.933-217.634,664.781-350.481c-126.566-209.579-341.743-382.703-636.655-501.76
		c-28.672-11.605-57.617-22.528-87.108-32.768c-25.532-8.875-38.912-36.727-30.037-62.259c8.875-25.532,36.728-38.912,62.259-30.038
		c31.539,11.059,61.986,22.528,91.341,34.406c313.753,126.703,544.085,312.525,681.984,538.897
		c4.642-3.141,9.421-6.281,14.063-9.558c329.864-224.46,620.134-489.335,869.99-786.705
		c-239.343-255.59-639.386-423.39-1054.72-459.298c-398.131-34.406-808.414,52.838-1101.414,300.783
		c-940.988,796.263-1577.643,1172.412-2068.48,1270.716c-447.147,89.566-771.686-47.65-1089.672-308.429
		c86.835,314.846,229.513,614.537,423.663,882.824c216.132,298.735,496.026,558.695,833.673,757.624l0,0
		c655.496,385.98,1405.338,469.675,2087.867,293.137c682.53-176.674,1297.613-613.581,1683.593-1268.941l0.137-0.273
		c114.551-194.56,202.479-397.722,265.011-605.116c53.657-178.313,88.474-359.492,104.994-540.809
		c-243.576,246.853-517.325,466.261-819.883,652.629c-17.067,10.513-34.133,20.89-51.336,31.129
		c76.186,229.513,70.314,487.834-25.122,760.218c-8.329,23.894-17.34,47.514-26.761,70.998
		c-10.104,25.122-38.502,37.273-63.625,27.17s-37.273-38.502-27.17-63.625c9.148-22.665,17.613-44.919,25.259-66.765
		c85.197-243.303,93.525-473.225,30.993-677.615c-212.446,120.422-438.135,225.144-676.932,312.525
		c39.595,129.161,38.366,272.93-6.417,425.711c-14.746,50.244-33.86,100.898-57.617,151.961
		c-11.333,24.576-40.414,35.226-64.99,23.894c-24.576-11.333-35.226-40.414-23.894-64.99
		c21.982-47.377,39.595-93.525,52.565-138.172c38.775-132.301,40.687-255.727,7.919-365.909
		c-250.675,85.879-515.277,152.781-793.396,198.929c27.853,107.725,21.299,226.509-22.255,350.891
		c-4.232,12.151-8.738,23.893-13.38,35.499c-10.104,25.122-38.502,37.273-63.625,27.17c-25.122-10.104-37.273-38.502-27.17-63.625
		c4.369-10.786,8.329-21.299,11.878-31.266c38.093-108.954,43.145-211.763,17.476-303.514
		c-195.789,28.809-398.131,47.514-606.754,55.296h-0.819L3771.324,5874.347z M6097.169,5070.848
		c-7.373,5.052-14.746,9.967-22.118,14.882c5.052,10.24,9.831,20.617,14.473,30.993c12.015-7.236,23.893-14.473,35.771-21.845
		c696.047-428.851,1235.627-1035.605,1604.54-1753.225c-0.273-10.65-14.473-24.576-32.495-37.41
		c-14.2-10.104-30.311-18.705-45.875-25.122c-10.104-4.232-19.524-7.373-27.853-9.421
		c-164.25,346.385-367.548,669.696-608.938,962.833l-0.956,1.092c-261.461,317.304-567.433,599.381-916.685,837.086
		L6097.169,5070.848z M5992.584,5139.797c-159.334,101.99-327.271,194.97-503.535,278.255
		c179.951-73.728,351.846-157.833,515.55-251.358C6000.776,5157.683,5996.681,5148.809,5992.584,5139.797z M6974.532,4126.993
		c226.236-282.078,417.246-591.736,571.938-922.556c13.107-28.126,42.325-38.502,78.916-33.724
		c18.295,2.321,40.687,8.738,63.215,18.022c22.119,9.148,45.056,21.436,65.399,35.908c49.971,35.772,85.743,85.879,70.042,144.999
		l-1.229,4.779l-2.594,5.052c-193.741,378.334-433.903,726.63-718.438,1035.605c0.273,2.321,0.273,4.642,0.137,7.1
		c-11.605,225.553-49.971,451.243-116.463,672.154c-64.581,214.494-155.785,424.892-274.705,626.824l-3.55,6.007l-0.137,0.137
		c-399.906,675.294-1035.196,1125.717-1739.708,1307.989c-706.697,182.818-1483.162,96.12-2161.869-303.514l-6.008-3.55l0,0
		c-347.341-205.755-635.153-473.498-857.429-780.834c-232.516-321.399-393.626-685.943-476.638-1068.1
		c-5.734-26.488,11.059-52.565,37.547-58.3c16.794-3.687,33.314,1.775,44.783,12.971c334.37,304.196,658.091,477.73,1120.529,385.16
		c474.59-95.027,1097.318-464.759,2024.38-1249.143c314.709-266.24,751.206-360.312,1173.094-323.857
		c432.811,37.41,852.104,212.719,1108.924,480.87H6974.532z M2094.968,3121.425c7.373-5.052,14.746-9.967,22.118-14.882
		c-5.052-10.24-9.831-20.616-14.473-30.993c-12.015,7.236-23.893,14.473-35.908,21.845
		C1370.658,3526.246,831.078,4133,462.165,4850.62c0.273,10.65,14.473,24.576,32.495,37.41
		c14.199,10.104,30.31,18.705,45.875,25.122c10.103,4.233,19.524,7.373,27.853,9.421
		c164.25-346.385,367.548-669.696,608.939-962.833l0.819-1.092c261.461-317.303,567.433-599.381,916.685-837.086L2094.968,3121.425z
		 M2199.552,3052.476c159.334-101.99,327.271-194.97,503.535-278.255c-179.951,73.728-351.846,157.833-515.55,251.358
		C2191.36,3034.59,2195.456,3043.465,2199.552,3052.476z M1217.604,4065.28c-226.236,282.078-417.246,591.736-571.938,922.556
		c-13.107,28.125-42.189,38.502-78.916,33.724c-18.295-2.321-40.687-8.738-63.215-18.022c-22.118-9.148-45.056-21.436-65.399-35.908
		c-49.971-35.772-85.743-85.879-70.042-144.999l1.229-4.779l2.594-5.051c193.741-378.334,433.903-726.631,718.438-1035.605
		c-0.273-2.321-0.273-4.642-0.137-7.1c11.605-225.553,49.971-451.243,116.463-672.154
		c64.58-214.494,155.785-424.892,274.705-626.824c399.77-678.844,1036.698-1131.315,1743.394-1314.133
		s1483.162-96.12,2161.869,303.514c350.208,206.165,639.932,475.273,863.573,784.384
		c232.516,321.399,393.625,685.943,476.638,1068.1c5.734,26.487-11.059,52.565-37.547,58.3c-16.793,3.687-33.314-1.775-44.783-12.97
		c-334.37-304.196-658.091-477.73-1120.529-385.161c-474.59,95.027-1097.318,464.76-2024.379,1249.144
		c-314.573,266.24-751.207,360.312-1173.094,323.857C1893.717,4508.74,1474.423,4333.432,1217.604,4065.28z" fill="#ffffff" style=""></path>
</g>
<desc>Created with Snap</desc><defs></defs></g><g><g transform="matrix(1.024,0,0,-1.024,0,0)"><path d="M191 -18Q100 -18 53 32Q7 82 7 158Q7 212 29 266Q52 321 94 362Q136 403 192 417Q161 439 146 470Q131 502 131 537Q131 589 159 639Q188 689 238 720Q289 752 350 752Q413 752 453 719Q493 686 493 627Q493 583 471 553Q449 523 419 523Q392 523 372 550Q390 556 403 583Q416 610 416 637Q416 666 400 679Q384 693 361 693Q332 693 308 672Q285 652 272 619Q259 587 259 552Q259 504 284 467Q309 431 360 418Q309 407 268 368Q227 329 204 277Q181 226 181 179Q181 134 204 106Q228 78 276 78Q326 78 380 105Q435 133 461 180L484 170Q445 84 364 33Q283 -18 191 -18ZM602 -6Q528 -6 487 32Q446 71 446 153Q446 222 473 305Q501 388 561 448Q622 509 715 509Q775 509 800 483Q826 457 826 417Q826 382 811 363Q796 344 773 344Q756 344 738 356Q750 389 750 415Q750 434 743 445Q736 456 722 456Q692 456 662 407Q632 358 613 288Q594 218 594 162Q594 113 611 95Q628 78 666 78Q720 78 758 103Q797 128 843 179L877 179Q766 -6 602 -6ZM989 -4Q915 -4 872 34Q829 72 829 154Q829 222 857 305Q885 388 947 448Q1009 509 1103 509Q1231 509 1231 349L1231 348Q1234 347 1242 347Q1275 347 1318 364Q1361 382 1396 407L1405 380Q1376 349 1329 327Q1283 306 1228 297Q1220 206 1187 138Q1154 70 1102 33Q1050 -4 989 -4ZM1029 86Q1053 86 1077 113Q1101 141 1119 188Q1137 236 1145 294Q1118 300 1118 336Q1118 377 1149 390Q1147 423 1139 435Q1131 448 1111 448Q1078 448 1047 400Q1016 352 997 285Q978 218 978 167Q978 119 989 102Q1000 86 1029 86ZM1890 -6Q1829 -6 1800 26Q1772 59 1772 107Q1772 128 1777 154Q1782 181 1787 206Q1793 231 1795 238Q1803 273 1810 307Q1817 341 1817 362Q1817 413 1781 413Q1755 413 1735 387Q1715 362 1703 321L1635 0L1491 0L1564 345Q1567 357 1567 370Q1567 414 1537 414Q1509 414 1488 388Q1468 363 1456 321L1388 0L1244 0L1350 500L1494 500L1483 448Q1534 505 1605 505Q1693 505 1708 419Q1763 504 1847 504Q1898 504 1928 476Q1958 448 1958 391Q1958 362 1951 326Q1944 291 1931 240Q1923 209 1916 179Q1910 150 1910 133Q1910 113 1919 102Q1928 91 1950 91Q1980 91 1998 112Q2016 134 2034 179L2076 179Q2039 69 1990 31Q1942 -6 1890 -6ZM2642 -6Q2581 -6 2552 26Q2524 59 2524 107Q2524 128 2529 154Q2534 181 2539 206Q2545 231 2547 238Q2555 273 2562 307Q2569 341 2569 362Q2569 413 2533 413Q2507 413 2487 387Q2467 362 2455 321L2387 0L2243 0L2316 345Q2319 357 2319 370Q2319 414 2289 414Q2261 414 2240 388Q2220 363 2208 321L2140 0L1996 0L2102 500L2246 500L2235 448Q2286 505 2357 505Q2445 505 2460 419Q2515 504 2599 504Q2650 504 2680 476Q2710 448 2710 391Q2710 362 2703 326Q2696 291 2683 240Q2675 209 2668 179Q2662 150 2662 133Q2662 113 2671 102Q2680 91 2702 91Q2732 91 2750 112Q2768 134 2786 179L2828 179Q2791 69 2742 31Q2694 -6 2642 -6ZM2929 -6Q2855 -6 2814 32Q2773 71 2773 153Q2773 222 2800 305Q2827 388 2888 448Q2949 509 3043 509Q3153 509 3153 413Q3153 357 3121 310Q3089 263 3036 234Q2983 206 2923 202Q2921 172 2921 162Q2921 113 2938 95Q2955 78 2993 78Q3047 78 3085 103Q3124 128 3170 179L3204 179Q3093 -6 2929 -6ZM2931 250Q2968 252 3001 276Q3035 300 3055 337Q3076 374 3076 415Q3076 456 3051 456Q3015 456 2980 393Q2946 330 2931 250ZM3132 0L3238 500L3382 500L3369 438Q3403 468 3430 484Q3458 500 3490 500Q3522 500 3540 478Q3559 456 3559 425Q3559 396 3540 374Q3521 352 3487 352Q3465 352 3457 362Q3450 373 3446 393Q3443 406 3440 412Q3437 418 3429 418Q3408 418 3393 409Q3379 401 3356 380L3276 0L3132 0ZM3689 -6Q3615 -6 3574 32Q3533 71 3533 153Q3533 222 3560 305Q3588 388 3648 448Q3709 509 3802 509Q3862 509 3887 483Q3913 457 3913 417Q3913 382 3898 363Q3883 344 3860 344Q3843 344 3825 356Q3837 389 3837 415Q3837 434 3830 445Q3823 456 3809 456Q3779 456 3749 407Q3719 358 3700 288Q3681 218 3681 162Q3681 113 3698 95Q3715 78 3753 78Q3807 78 3845 103Q3884 128 3930 179L3964 179Q3853 -6 3689 -6ZM4073 -6Q3999 -6 3958 32Q3917 71 3917 153Q3917 222 3944 305Q3971 388 4032 448Q4093 509 4187 509Q4297 509 4297 413Q4297 357 4265 310Q4233 263 4180 234Q4127 206 4067 202Q4065 172 4065 162Q4065 113 4082 95Q4099 78 4137 78Q4191 78 4229 103Q4268 128 4314 179L4348 179Q4237 -6 4073 -6ZM4075 250Q4112 252 4145 276Q4179 300 4199 337Q4220 374 4220 415Q4220 456 4195 456Q4159 456 4124 393Q4090 330 4075 250ZM4776 -18Q4713 -18 4665 4Q4617 26 4591 65Q4565 105 4565 157Q4565 201 4583 237Q4602 273 4633 294Q4665 315 4703 315Q4738 315 4762 297Q4786 280 4792 249Q4740 249 4709 221Q4678 194 4678 147Q4678 104 4704 78Q4730 52 4773 52Q4826 52 4860 87Q4895 123 4895 177Q4895 224 4869 266Q4843 308 4791 368Q4737 430 4709 474Q4682 519 4682 572Q4682 624 4711 665Q4740 707 4791 731Q4842 755 4906 755Q4987 755 5035 717Q5084 679 5084 615Q5084 573 5063 547Q5042 521 5008 521Q4970 521 4947 552Q4966 566 4977 589Q4988 612 4988 637Q4988 669 4969 688Q4950 707 4917 707Q4877 707 4851 678Q4826 650 4826 606Q4826 566 4849 531Q4872 497 4921 443Q4961 400 4985 369Q5010 338 5027 297Q5045 257 5045 210Q5045 146 5009 94Q4974 42 4912 12Q4851 -18 4776 -18ZM5268 554Q5235 554 5212 577Q5189 600 5189 633Q5189 666 5212 689Q5235 713 5268 713Q5301 713 5324 689Q5348 666 5348 633Q5348 600 5324 577Q5301 554 5268 554ZM5200 -6Q5152 -6 5122 24Q5093 54 5093 114Q5093 139 5101 179L5169 500L5313 500L5241 160Q5237 145 5237 128Q5237 108 5246 99Q5256 91 5278 91Q5307 91 5332 115Q5357 140 5368 179L5410 179Q5373 71 5315 32Q5257 -6 5200 -6ZM5467 -6Q5419 -6 5389 24Q5360 54 5360 114Q5360 139 5368 179L5428 460L5395 460L5403 500L5436 500L5466 638L5614 658L5580 500L5640 500L5632 460L5572 460L5508 160Q5504 145 5504 128Q5504 108 5513 99Q5523 91 5545 91Q5574 91 5599 115Q5624 140 5635 179L5677 179Q5640 71 5582 32Q5524 -6 5467 -6ZM5778 -6Q5704 -6 5663 32Q5622 71 5622 153Q5622 222 5649 305Q5676 388 5737 448Q5798 509 5892 509Q6002 509 6002 413Q6002 357 5970 310Q5938 263 5885 234Q5832 206 5772 202Q5770 172 5770 162Q5770 113 5787 95Q5804 78 5842 78Q5896 78 5934 103Q5973 128 6019 179L6053 179Q5942 -6 5778 -6ZM5780 250Q5817 252 5850 276Q5884 300 5904 337Q5925 374 5925 415Q5925 456 5900 456Q5864 456 5829 393Q5795 330 5780 250Z" fill="#ffffff" style=""></path></g></g></g></svg>